<svg width="87" height="34" viewBox="0 0 87 34" fill="none" xmlns="http://www.w3.org/2000/svg">
<path d="M63.4615 13.1817H77.378V0.5H86.3077V33.5H77.378V20.1942H63.4615" fill="#C1FD35"/>
<path d="M47.7787 0.5L43.7109 15.1506C43.5174 15.9518 43.3063 16.8242 43.0816 17.769C42.8556 18.7139 42.6459 19.6118 42.4524 20.4586C42.2589 21.3082 42.0965 22.0356 41.9679 22.6436H41.5809C41.4185 21.8746 41.225 21.0102 41.0004 20.0493C40.7744 19.0883 40.5484 18.1676 40.3224 17.2872C40.0964 16.4068 39.9029 15.7102 39.7418 15.1975L35.72 0.5H23.522C23.457 5.92216 23.4096 9.9257 23.4029 11.9442C23.4029 12.2623 23.3988 13.5454 23.3014 15.2432C23.2364 16.3813 23.2039 16.9503 23.1065 17.5919C22.9793 18.4294 22.7614 19.8131 21.9996 21.4142C21.6125 22.2289 21.0482 23.3871 19.8587 24.5172C19.4528 24.9037 18.6584 25.6929 17.3404 26.1989C16.339 26.5827 15.1603 26.7746 13.8044 26.7746H8.67019V7.22535C10.0803 7.23072 11.1818 7.22938 11.941 7.22535C12.6 7.22267 13.006 7.22133 13.4322 7.22535C13.6027 7.22804 13.7746 7.23072 13.9857 7.23609C15.3078 7.2683 16.0291 7.28575 16.8546 7.36225C17.2659 7.39983 17.8465 7.46559 18.5447 7.58504V0.844924C18.0035 0.759029 17.4283 0.685212 16.8207 0.630185C16.0291 0.557711 15.2821 0.526842 14.5906 0.522816C9.72571 0.514763 4.86353 0.508053 0 0.5V33.5H13.9004C17.5163 33.5 20.576 32.9081 23.0781 31.723C24.2486 31.1687 25.2879 30.4735 26.1973 29.6414C26.1973 29.6414 26.2027 29.6374 26.2041 29.6347C26.2217 29.6186 26.242 29.6038 26.2596 29.5864C26.3096 29.5394 26.3881 29.4642 26.4788 29.3757C26.9402 28.9355 27.5045 28.3328 28.0621 27.541C29.2759 25.815 29.8307 24.081 30.1853 22.4128C30.1866 22.4074 30.188 22.402 30.1893 22.3967C30.8633 19.6024 30.8957 17.357 30.9066 16.7168C30.9066 16.6994 30.9066 16.6792 30.9066 16.6604C30.9187 16.2847 30.9214 15.9706 30.9228 15.7505C30.9228 15.7357 30.9228 15.7223 30.9228 15.7075C30.958 13.8648 31.0148 11.6007 31.0811 8.954H31.1163C31.2774 9.59554 31.4627 10.3793 31.6738 11.3081C31.8836 12.2368 32.1015 13.1495 32.3275 14.046C32.5535 14.9425 32.747 15.7116 32.908 16.3518L37.7999 33.5H44.7745L49.6178 16.3518C49.8113 15.6471 50.0291 14.807 50.2714 13.8299C50.5136 12.8529 50.7396 11.908 50.9493 10.9954C51.1591 10.0827 51.312 9.38616 51.4094 8.90569H51.7965C51.7965 9.41838 51.7802 10.2505 51.7478 11.4034C51.7153 12.5562 51.6909 13.838 51.6747 15.2459C51.6584 16.6551 51.6503 18.0482 51.6503 19.4252V33.5H60.0769V0.5H47.7747H47.7787Z" fill="#C1FD35"/>
</svg>
